<?xml version="1.0" encoding="UTF-8"?>
<!DOCTYPE svg PUBLIC "-//W3C//DTD SVG 1.1//EN" "http://www.w3.org/Graphics/SVG/1.1/DTD/svg11.dtd">
<svg xmlns="http://www.w3.org/2000/svg" version="1.1" width="500px" height="500px" style="shape-rendering:geometricPrecision; text-rendering:geometricPrecision; image-rendering:optimizeQuality; fill-rule:evenodd; clip-rule:evenodd" xmlns:xlink="http://www.w3.org/1999/xlink">
<g><path style="opacity:1" fill="#fefefe" d="M -0.5,-0.5 C 166.167,-0.5 332.833,-0.5 499.5,-0.5C 499.5,166.167 499.5,332.833 499.5,499.5C 332.833,499.5 166.167,499.5 -0.5,499.5C -0.5,332.833 -0.5,166.167 -0.5,-0.5 Z"/></g>
<g><path style="opacity:1" fill="#4b4f69" d="M 254.5,96.5 C 262.141,97.9402 269.807,99.2735 277.5,100.5C 281.757,110.858 285.091,121.525 287.5,132.5C 289.455,139.035 290.789,145.702 291.5,152.5C 281.303,147.933 271.137,143.266 261,138.5C 260.667,130.5 260.333,122.5 260,114.5C 259.054,108.168 257.221,102.168 254.5,96.5 Z"/></g>
<g><path style="opacity:1" fill="#4c4f6a" d="M 287.5,104.5 C 316.48,115.16 338.48,133.993 353.5,161C 364.957,164.643 375.123,170.477 384,178.5C 396.309,193.212 397.643,208.879 388,225.5C 380.709,236.458 371.709,245.791 361,253.5C 356.126,267.594 348.959,280.261 339.5,291.5C 337.86,284.389 336.86,277.056 336.5,269.5C 323.543,275.153 310.21,279.819 296.5,283.5C 296.5,284.833 296.5,286.167 296.5,287.5C 291.637,300.09 286.97,312.756 282.5,325.5C 281.501,328.162 280.501,330.828 279.5,333.5C 278.504,318.676 278.171,303.676 278.5,288.5C 274.613,288.646 270.946,289.313 267.5,290.5C 234.593,294.371 201.593,295.538 168.5,294C 186.188,302.178 203.855,310.345 221.5,318.5C 232.834,324.498 244.501,329.998 256.5,335C 255.263,335.232 254.263,335.732 253.5,336.5C 209.536,338.178 173.87,322.011 146.5,288C 131.438,283.904 119.272,275.737 110,263.5C 101.913,249.461 102.913,236.128 113,223.5C 116,220.5 119,217.5 122,214.5C 124.989,167.658 146.822,132.824 187.5,110C 190.293,108.346 193.293,107.179 196.5,106.5C 195.422,109.402 194.756,112.402 194.5,115.5C 192.323,122.053 190.657,128.719 189.5,135.5C 179.135,136.671 168.802,138.171 158.5,140C 156.667,140.5 155.5,141.667 155,143.5C 154.056,173.499 153.222,203.499 152.5,233.5C 151.555,245.664 150.889,257.997 150.5,270.5C 162.427,272.164 174.427,272.831 186.5,272.5C 217.077,273.108 247.077,269.275 276.5,261C 278.433,250.738 279.766,240.238 280.5,229.5C 280.945,219.49 281.612,209.49 282.5,199.5C 281.812,192.181 281.479,184.848 281.5,177.5C 283.5,177.5 285.5,177.5 287.5,177.5C 287.739,181.842 288.073,186.176 288.5,190.5C 289.162,194.466 289.495,198.466 289.5,202.5C 290.167,209.167 290.833,215.833 291.5,222.5C 292.2,233.532 293.2,244.532 294.5,255.5C 307.118,252.357 319.451,248.357 331.5,243.5C 331.228,235.934 330.228,228.601 328.5,221.5C 328.392,216.29 327.725,211.29 326.5,206.5C 325.55,193.017 323.717,179.684 321,166.5C 313.85,162.676 306.684,159.009 299.5,155.5C 298.101,146.578 296.101,137.911 293.5,129.5C 292.019,121.073 289.685,112.906 286.5,105C 286.728,104.601 287.062,104.435 287.5,104.5 Z"/></g>
<g><path style="opacity:1" fill="#605f75" d="M 252.5,143.5 C 251.311,152.312 250.645,161.312 250.5,170.5C 249.549,171.919 249.216,173.585 249.5,175.5C 235.325,168.828 221.492,161.495 208,153.5C 207.828,146.987 207.328,140.653 206.5,134.5C 207.537,132.262 207.703,129.929 207,127.5C 205.333,125.167 203.667,122.833 202,120.5C 201.202,118.741 201.369,117.074 202.5,115.5C 218.833,123 235.167,130.5 251.5,138C 252.406,139.699 252.739,141.533 252.5,143.5 Z"/></g>
<g><path style="opacity:1" fill="#ad9a9d" d="M 194.5,115.5 C 194.293,118.745 195.793,120.745 199,121.5C 199.3,126.238 198.8,130.904 197.5,135.5C 197.624,136.107 197.957,136.44 198.5,136.5C 197.061,138.588 196.394,140.921 196.5,143.5C 193.756,144.477 191.423,143.81 189.5,141.5C 189.5,140.5 189.5,139.5 189.5,138.5C 189.5,137.5 189.5,136.5 189.5,135.5C 190.657,128.719 192.323,122.053 194.5,115.5 Z"/></g>
<g><path style="opacity:1" fill="#a9969b" d="M 293.5,129.5 C 296.101,137.911 298.101,146.578 299.5,155.5C 296.557,155.02 293.89,154.02 291.5,152.5C 290.789,145.702 289.455,139.035 287.5,132.5C 289.467,132.261 291.301,132.594 293,133.5C 293.49,132.207 293.657,130.873 293.5,129.5 Z"/></g>
<g><path style="opacity:1" fill="#4d506a" d="M 189.5,138.5 C 189.5,139.5 189.5,140.5 189.5,141.5C 188.858,146.893 187.858,152.226 186.5,157.5C 176.918,153.709 167.584,149.376 158.5,144.5C 159.714,142.931 161.381,142.098 163.5,142C 172.186,140.878 180.852,139.711 189.5,138.5 Z"/></g>
<g><path style="opacity:1" fill="#c1a7a4" d="M 287.5,104.5 C 287.062,104.435 286.728,104.601 286.5,105C 289.685,112.906 292.019,121.073 293.5,129.5C 293.657,130.873 293.49,132.207 293,133.5C 291.301,132.594 289.467,132.261 287.5,132.5C 285.091,121.525 281.757,110.858 277.5,100.5C 272.9,89.4004 264.9,81.9004 253.5,78C 248.594,76.8154 244.261,77.8154 240.5,81C 246.427,85.0901 251.093,90.2568 254.5,96.5C 257.221,102.168 259.054,108.168 260,114.5C 260.333,122.5 260.667,130.5 261,138.5C 271.137,143.266 281.303,147.933 291.5,152.5C 293.89,154.02 296.557,155.02 299.5,155.5C 306.684,159.009 313.85,162.676 321,166.5C 323.717,179.684 325.55,193.017 326.5,206.5C 325.009,203.653 324.009,199.986 323.5,195.5C 322.833,191.5 322.167,187.5 321.5,183.5C 320.955,180.187 320.455,176.854 320,173.5C 319.439,172.978 318.772,172.645 318,172.5C 308.088,175.584 297.921,177.251 287.5,177.5C 285.5,177.5 283.5,177.5 281.5,177.5C 281.479,184.848 281.812,192.181 282.5,199.5C 281.612,209.49 280.945,219.49 280.5,229.5C 279.507,220.682 279.173,211.682 279.5,202.5C 278.5,202.5 277.5,202.5 276.5,202.5C 269.059,199.905 261.726,196.905 254.5,193.5C 254.263,192.209 254.596,191.209 255.5,190.5C 261.35,192.509 267.017,195.009 272.5,198C 274.447,198.991 276.447,199.325 278.5,199C 278.221,191.551 278.221,184.051 278.5,176.5C 279.025,175.808 279.692,175.308 280.5,175C 287.518,174.624 294.518,174.124 301.5,173.5C 307.603,173.209 313.27,171.542 318.5,168.5C 299.201,159.507 279.868,150.507 260.5,141.5C 259.516,144.428 259.183,147.428 259.5,150.5C 259.768,152.099 259.434,153.432 258.5,154.5C 252.97,152.97 250.97,149.303 252.5,143.5C 252.739,141.533 252.406,139.699 251.5,138C 235.167,130.5 218.833,123 202.5,115.5C 201.369,117.074 201.202,118.741 202,120.5C 203.667,122.833 205.333,125.167 207,127.5C 207.703,129.929 207.537,132.262 206.5,134.5C 204.007,135.774 201.341,136.44 198.5,136.5C 197.957,136.44 197.624,136.107 197.5,135.5C 198.8,130.904 199.3,126.238 199,121.5C 195.793,120.745 194.293,118.745 194.5,115.5C 194.756,112.402 195.422,109.402 196.5,106.5C 199.829,96.6643 205.495,88.4976 213.5,82C 219.596,78.0661 226.096,76.8994 233,78.5C 240.638,71.4492 249.471,69.6158 259.5,73C 272.922,79.9192 282.256,90.4192 287.5,104.5 Z"/></g>
<g><path style="opacity:1" fill="#ac989c" d="M 222.5,98.5 C 223.568,97.5655 224.901,97.2322 226.5,97.5C 226.5,100.833 226.5,104.167 226.5,107.5C 228.5,107.833 230.5,108.167 232.5,108.5C 233.345,114.463 234.012,120.463 234.5,126.5C 231.52,125.677 228.853,124.343 226.5,122.5C 225.724,114.525 225.39,106.525 225.5,98.5C 224.5,98.5 223.5,98.5 222.5,98.5 Z"/></g>
<g><path style="opacity:1" fill="#4c506a" d="M 222.5,98.5 C 223.5,98.5 224.5,98.5 225.5,98.5C 225.39,106.525 225.724,114.525 226.5,122.5C 218.83,119.582 211.33,116.249 204,112.5C 203.468,107.914 204.968,104.247 208.5,101.5C 213.024,99.8692 217.691,98.8692 222.5,98.5 Z"/></g>
<g><path style="opacity:1" fill="#4b4f6a" d="M 233.5,96.5 C 237.167,96.5 240.833,96.5 244.5,96.5C 248.324,101.83 250.824,107.83 252,114.5C 252.831,121.192 252.664,127.858 251.5,134.5C 245.686,132.093 240.02,129.426 234.5,126.5C 234.012,120.463 233.345,114.463 232.5,108.5C 232.237,104.4 232.57,100.4 233.5,96.5 Z"/></g>
<g><path style="opacity:1" fill="#fdfdfd" d="M 244.5,96.5 C 240.833,96.5 237.167,96.5 233.5,96.5C 233.441,93.0382 234.441,90.0382 236.5,87.5C 239.926,89.9199 242.592,92.9199 244.5,96.5 Z"/></g>
<g><path style="opacity:1" fill="#fdfcfc" d="M 226.5,97.5 C 224.901,97.2322 223.568,97.5655 222.5,98.5C 217.691,98.8692 213.024,99.8692 208.5,101.5C 210.619,91.0789 217.286,85.4123 228.5,84.5C 227.09,88.7039 226.423,93.0372 226.5,97.5 Z"/></g>
<g><path style="opacity:1" fill="#fcfbfc" d="M 277.5,100.5 C 269.807,99.2735 262.141,97.9402 254.5,96.5C 251.093,90.2568 246.427,85.0901 240.5,81C 244.261,77.8154 248.594,76.8154 253.5,78C 264.9,81.9004 272.9,89.4004 277.5,100.5 Z"/></g>
<g><path style="opacity:1" fill="#6b677b" d="M 301.5,173.5 C 287.856,165.341 273.856,157.675 259.5,150.5C 259.183,147.428 259.516,144.428 260.5,141.5C 279.868,150.507 299.201,159.507 318.5,168.5C 313.27,171.542 307.603,173.209 301.5,173.5 Z"/></g>
<g><path style="opacity:1" fill="#52536d" d="M 206.5,134.5 C 207.328,140.653 207.828,146.987 208,153.5C 221.492,161.495 235.325,168.828 249.5,175.5C 248.756,179.119 248.423,182.785 248.5,186.5C 230.256,178.711 212.256,170.378 194.5,161.5C 194.988,155.463 195.655,149.463 196.5,143.5C 196.394,140.921 197.061,138.588 198.5,136.5C 201.341,136.44 204.007,135.774 206.5,134.5 Z"/></g>
<g><path style="opacity:1" fill="#978994" d="M 189.5,141.5 C 191.423,143.81 193.756,144.477 196.5,143.5C 195.655,149.463 194.988,155.463 194.5,161.5C 193.258,163.389 193.258,165.389 194.5,167.5C 193.399,168.848 192.399,170.348 191.5,172C 189.299,172.825 187.466,172.325 186,170.5C 185.601,170.728 185.435,171.062 185.5,171.5C 184.903,171.265 184.57,170.765 184.5,170C 186.727,165.964 187.394,161.797 186.5,157.5C 187.858,152.226 188.858,146.893 189.5,141.5 Z"/></g>
<g><path style="opacity:1" fill="#bea5a2" d="M 189.5,135.5 C 189.5,136.5 189.5,137.5 189.5,138.5C 180.852,139.711 172.186,140.878 163.5,142C 161.381,142.098 159.714,142.931 158.5,144.5C 167.584,149.376 176.918,153.709 186.5,157.5C 187.394,161.797 186.727,165.964 184.5,170C 184.57,170.765 184.903,171.265 185.5,171.5C 186.462,175.146 188.795,176.313 192.5,175C 194.113,172.772 194.78,170.272 194.5,167.5C 193.258,165.389 193.258,163.389 194.5,161.5C 212.256,170.378 230.256,178.711 248.5,186.5C 248.737,187.791 248.404,188.791 247.5,189.5C 246.325,189.281 245.325,189.614 244.5,190.5C 223.229,223.316 192.895,240.982 153.5,243.5C 152.513,240.232 152.18,236.898 152.5,233.5C 153.222,203.499 154.056,173.499 155,143.5C 155.5,141.667 156.667,140.5 158.5,140C 168.802,138.171 179.135,136.671 189.5,135.5 Z"/></g>
<g><path style="opacity:1" fill="#c4a9a5" d="M 333.5,164.5 C 354.038,163.338 371.204,170.671 385,186.5C 390.417,193.844 391.75,201.844 389,210.5C 384,224.18 375.833,235.68 364.5,245C 330.137,268.459 292.137,282.459 250.5,287C 217.696,292.228 185.029,291.561 152.5,285C 137.203,282.105 124.37,274.938 114,263.5C 103.913,247.244 105.746,232.41 119.5,219C 125.086,214.249 131.086,210.082 137.5,206.5C 138.696,206.846 138.696,207.346 137.5,208C 125.279,214.554 116.113,224.054 110,236.5C 107.833,248.668 111.667,258.501 121.5,266C 137.911,273.817 155.244,277.817 173.5,278C 227.751,279.353 280.084,270.02 330.5,250C 350.044,242.498 365.877,230.332 378,213.5C 383.432,205.648 383.765,197.648 379,189.5C 367.171,175.331 352.004,166.998 333.5,164.5 Z"/></g>
<g><path style="opacity:1" fill="#2b2941" d="M 194.5,167.5 C 194.78,170.272 194.113,172.772 192.5,175C 188.795,176.313 186.462,175.146 185.5,171.5C 185.435,171.062 185.601,170.728 186,170.5C 187.466,172.325 189.299,172.825 191.5,172C 192.399,170.348 193.399,168.848 194.5,167.5 Z"/></g>
<g><path style="opacity:1" fill="#5c5c73" d="M 259.5,150.5 C 273.856,157.675 287.856,165.341 301.5,173.5C 294.518,174.124 287.518,174.624 280.5,175C 279.692,175.308 279.025,175.808 278.5,176.5C 278.221,184.051 278.221,191.551 278.5,199C 276.447,199.325 274.447,198.991 272.5,198C 267.017,195.009 261.35,192.509 255.5,190.5C 255.833,186.5 256.167,182.5 256.5,178.5C 258.018,170.581 258.685,162.581 258.5,154.5C 259.434,153.432 259.768,152.099 259.5,150.5 Z"/></g>
<g><path style="opacity:1" fill="#a9969c" d="M 252.5,143.5 C 250.97,149.303 252.97,152.97 258.5,154.5C 258.685,162.581 258.018,170.581 256.5,178.5C 251.665,178.034 249.665,175.367 250.5,170.5C 250.645,161.312 251.311,152.312 252.5,143.5 Z"/></g>
<g><path style="opacity:1" fill="#948894" d="M 321.5,183.5 C 310.465,185.676 299.465,188.009 288.5,190.5C 288.073,186.176 287.739,181.842 287.5,177.5C 297.921,177.251 308.088,175.584 318,172.5C 318.772,172.645 319.439,172.978 320,173.5C 320.455,176.854 320.955,180.187 321.5,183.5 Z"/></g>
<g><path style="opacity:1" fill="#f8f8f9" d="M 360.5,177.5 C 379.101,188.54 381.268,202.207 367,218.5C 367.208,204.414 365.041,190.747 360.5,177.5 Z"/></g>
<g><path style="opacity:1" fill="#988a95" d="M 250.5,170.5 C 249.665,175.367 251.665,178.034 256.5,178.5C 256.167,182.5 255.833,186.5 255.5,190.5C 254.596,191.209 254.263,192.209 254.5,193.5C 254.784,195.415 254.451,197.081 253.5,198.5C 251.791,198.392 249.791,198.225 247.5,198C 246.74,195.975 246.406,194.142 246.5,192.5C 247.11,191.609 247.443,190.609 247.5,189.5C 248.404,188.791 248.737,187.791 248.5,186.5C 248.423,182.785 248.756,179.119 249.5,175.5C 249.216,173.585 249.549,171.919 250.5,170.5 Z"/></g>
<g><path style="opacity:1" fill="#b8a0a1" d="M 247.5,189.5 C 247.443,190.609 247.11,191.609 246.5,192.5C 243.688,195.839 244.021,199.005 247.5,202C 250.872,203.122 252.872,201.955 253.5,198.5C 254.451,197.081 254.784,195.415 254.5,193.5C 261.726,196.905 269.059,199.905 276.5,202.5C 255.873,237.821 225.873,261.155 186.5,272.5C 174.427,272.831 162.427,272.164 150.5,270.5C 150.889,257.997 151.555,245.664 152.5,233.5C 152.18,236.898 152.513,240.232 153.5,243.5C 192.895,240.982 223.229,223.316 244.5,190.5C 245.325,189.614 246.325,189.281 247.5,189.5 Z"/></g>
<g><path style="opacity:1" fill="#867c8c" d="M 321.5,183.5 C 322.167,187.5 322.833,191.5 323.5,195.5C 312.266,198.347 300.933,200.68 289.5,202.5C 289.495,198.466 289.162,194.466 288.5,190.5C 299.465,188.009 310.465,185.676 321.5,183.5 Z"/></g>
<g><path style="opacity:1" fill="#323047" d="M 246.5,192.5 C 246.406,194.142 246.74,195.975 247.5,198C 249.791,198.225 251.791,198.392 253.5,198.5C 252.872,201.955 250.872,203.122 247.5,202C 244.021,199.005 243.688,195.839 246.5,192.5 Z"/></g>
<g><path style="opacity:1" fill="#797385" d="M 323.5,195.5 C 324.009,199.986 325.009,203.653 326.5,206.5C 327.725,211.29 328.392,216.29 328.5,221.5C 327.717,219.657 327.05,217.657 326.5,215.5C 325.833,215.167 325.167,214.833 324.5,214.5C 313.523,217.328 302.523,219.994 291.5,222.5C 290.833,215.833 290.167,209.167 289.5,202.5C 300.933,200.68 312.266,198.347 323.5,195.5 Z"/></g>
<g><path style="opacity:1" fill="#b39da0" d="M 276.5,202.5 C 277.5,202.5 278.5,202.5 279.5,202.5C 279.173,211.682 279.507,220.682 280.5,229.5C 279.766,240.238 278.433,250.738 276.5,261C 247.077,269.275 217.077,273.108 186.5,272.5C 225.873,261.155 255.873,237.821 276.5,202.5 Z"/></g>
<g><path style="opacity:1" fill="#68657b" d="M 328.5,221.5 C 330.228,228.601 331.228,235.934 331.5,243.5C 319.451,248.357 307.118,252.357 294.5,255.5C 293.2,244.532 292.2,233.532 291.5,222.5C 302.523,219.994 313.523,217.328 324.5,214.5C 325.167,214.833 325.833,215.167 326.5,215.5C 327.05,217.657 327.717,219.657 328.5,221.5 Z"/></g>
<g><path style="opacity:1" fill="#f7f7f8" d="M 121.5,226.5 C 124.057,239.672 128.057,252.672 133.5,265.5C 118.481,262.945 111.981,253.945 114,238.5C 116.272,234.276 118.772,230.276 121.5,226.5 Z"/></g>
<g><path style="opacity:1" fill="#585971" d="M 339.5,291.5 C 339.665,294.518 339.498,297.518 339,300.5C 338.583,301.756 337.75,302.423 336.5,302.5C 333.46,300.654 330.127,299.321 326.5,298.5C 317.256,294.551 307.923,290.551 298.5,286.5C 297.817,286.863 297.15,287.196 296.5,287.5C 296.5,286.167 296.5,284.833 296.5,283.5C 310.21,279.819 323.543,275.153 336.5,269.5C 336.86,277.056 337.86,284.389 339.5,291.5 Z"/></g>
<g><path style="opacity:1" fill="#a3929b" d="M 279.5,333.5 C 278.833,336.5 278.167,339.5 277.5,342.5C 277.083,343.124 276.416,343.457 275.5,343.5C 270.272,341.887 265.272,339.72 260.5,337C 258.19,336.503 255.857,336.337 253.5,336.5C 254.263,335.732 255.263,335.232 256.5,335C 244.501,329.998 232.834,324.498 221.5,318.5C 239.804,312.184 256.471,303.017 271.5,291C 270.207,290.51 268.873,290.343 267.5,290.5C 270.946,289.313 274.613,288.646 278.5,288.5C 278.171,303.676 278.504,318.676 279.5,333.5 Z"/></g>
<g><path style="opacity:1" fill="#aa979c" d="M 267.5,290.5 C 268.873,290.343 270.207,290.51 271.5,291C 256.471,303.017 239.804,312.184 221.5,318.5C 203.855,310.345 186.188,302.178 168.5,294C 201.593,295.538 234.593,294.371 267.5,290.5 Z"/></g>
<g><path style="opacity:1" fill="#bba4a3" d="M 326.5,298.5 C 311.869,307.486 297.203,316.486 282.5,325.5C 286.97,312.756 291.637,300.09 296.5,287.5C 297.15,287.196 297.817,286.863 298.5,286.5C 307.923,290.551 317.256,294.551 326.5,298.5 Z"/></g>
<g><path style="opacity:1" fill="#c8ada8" d="M 326.5,298.5 C 330.127,299.321 333.46,300.654 336.5,302.5C 319.014,315.137 301.347,327.637 283.5,340C 281.593,341.122 279.593,341.955 277.5,342.5C 278.167,339.5 278.833,336.5 279.5,333.5C 280.501,330.828 281.501,328.162 282.5,325.5C 297.203,316.486 311.869,307.486 326.5,298.5 Z"/></g>
<g><path style="opacity:1" fill="#50546e" d="M 261.5,398.5 C 262.468,396.393 262.802,394.059 262.5,391.5C 260.265,391.205 258.265,391.539 256.5,392.5C 254.692,391.082 254.025,389.082 254.5,386.5C 259.167,386.5 263.833,386.5 268.5,386.5C 270.99,402.176 264.323,408.676 248.5,406C 245.063,404.895 242.563,402.728 241,399.5C 236.229,384.03 241.562,374.363 257,370.5C 261.761,370.907 265.594,372.907 268.5,376.5C 267.626,378.747 267.292,381.08 267.5,383.5C 266.167,383.5 264.833,383.5 263.5,383.5C 263.272,375.716 259.606,373.549 252.5,377C 250.19,378.637 248.69,380.804 248,383.5C 247.001,389.019 247.501,394.353 249.5,399.5C 252.704,402.904 256.371,403.404 260.5,401C 261.252,400.329 261.586,399.496 261.5,398.5 Z"/></g>
<g><path style="opacity:1" fill="#525670" d="M 126.5,371.5 C 128.833,371.5 131.167,371.5 133.5,371.5C 133.5,374.833 133.5,378.167 133.5,381.5C 129.849,381.838 128.183,380.172 128.5,376.5C 125.214,377.207 121.881,377.54 118.5,377.5C 118.5,380.5 118.5,383.5 118.5,386.5C 122.397,387.03 125.73,386.03 128.5,383.5C 129.484,386.428 129.817,389.428 129.5,392.5C 125.682,390.987 121.682,390.32 117.5,390.5C 117.5,393.833 117.5,397.167 117.5,400.5C 120.898,400.82 124.232,400.487 127.5,399.5C 128.309,397.929 128.643,396.262 128.5,394.5C 129.833,394.5 131.167,394.5 132.5,394.5C 132.5,397.833 132.5,401.167 132.5,404.5C 124.16,404.691 115.826,405.024 107.5,405.5C 109.749,396.681 110.749,387.681 110.5,378.5C 109.5,378.5 108.5,378.5 107.5,378.5C 107.5,376.833 107.5,375.167 107.5,373.5C 114.037,373.414 120.37,372.747 126.5,371.5 Z"/></g>
<g><path style="opacity:1" fill="#535770" d="M 284.5,379.5 C 286.5,379.5 288.5,379.5 290.5,379.5C 290.5,381.833 290.5,384.167 290.5,386.5C 287.253,386.415 284.419,387.415 282,389.5C 281.316,394.822 280.816,400.156 280.5,405.5C 277.833,405.5 275.167,405.5 272.5,405.5C 272.334,397.493 272.5,389.493 273,381.5C 276.275,379.909 279.275,380.242 282,382.5C 283.045,381.627 283.878,380.627 284.5,379.5 Z"/></g>
<g><path style="opacity:1" fill="#51556f" d="M 147.5,379.5 C 152.489,379.04 157.156,380.04 161.5,382.5C 162.48,385.086 162.813,387.753 162.5,390.5C 158.849,390.838 157.183,389.172 157.5,385.5C 147.678,384.186 144.178,388.186 147,397.5C 149.003,399.922 151.503,400.755 154.5,400C 156.859,398.642 159.193,397.642 161.5,397C 161.833,397.333 162.167,397.667 162.5,398C 160.009,403.564 155.675,406.064 149.5,405.5C 143.418,405.888 139.585,403.222 138,397.5C 136.676,389.149 139.843,383.149 147.5,379.5 Z"/></g>
<g><path style="opacity:1" fill="#50546e" d="M 175.5,379.5 C 189.301,379.124 194.135,385.458 190,398.5C 188.833,401 187,402.833 184.5,404C 167.857,407.903 162.357,401.736 168,385.5C 170.114,382.879 172.614,380.879 175.5,379.5 Z"/></g>
<g><path style="opacity:1" fill="#51556f" d="M 225.5,378.5 C 228.862,378.07 231.695,379.07 234,381.5C 234.5,389.159 234.666,396.826 234.5,404.5C 231.833,404.5 229.167,404.5 226.5,404.5C 226.666,398.158 226.5,391.825 226,385.5C 223.733,384.065 221.733,384.398 220,386.5C 219.501,392.491 219.334,398.491 219.5,404.5C 216.5,404.5 213.5,404.5 210.5,404.5C 210.666,398.491 210.499,392.491 210,386.5C 208.333,385.167 206.667,385.167 205,386.5C 204.667,392.5 204.333,398.5 204,404.5C 201.281,405.444 198.448,405.777 195.5,405.5C 195.5,397.5 195.5,389.5 195.5,381.5C 199.03,380.989 202.196,381.656 205,383.5C 209.667,379.5 214.333,379.5 219,383.5C 220.965,381.45 223.132,379.783 225.5,378.5 Z"/></g>
<g><path style="opacity:1" fill="#50546e" d="M 302.5,379.5 C 316.301,379.124 321.135,385.458 317,398.5C 315.833,401 314,402.833 311.5,404C 294.857,407.903 289.357,401.736 295,385.5C 297.114,382.879 299.614,380.879 302.5,379.5 Z"/></g>
<g><path style="opacity:1" fill="#4f536d" d="M 343.5,379.5 C 345.589,379.857 347.589,380.523 349.5,381.5C 346.167,389.167 342.833,396.833 339.5,404.5C 336.291,405.787 333.125,405.787 330,404.5C 326.663,396.654 323.83,388.654 321.5,380.5C 324.572,380.183 327.572,380.516 330.5,381.5C 332.228,386.621 334.228,391.621 336.5,396.5C 339.117,390.935 341.45,385.268 343.5,379.5 Z"/></g>
<g><path style="opacity:1" fill="#51556f" d="M 362.5,379.5 C 373.886,378.22 378.886,383.22 377.5,394.5C 371.794,394.171 366.128,394.505 360.5,395.5C 361.159,398.824 363.159,400.157 366.5,399.5C 370.035,399.649 372.868,398.316 375,395.5C 376.365,396.593 376.699,397.926 376,399.5C 371.052,405.47 364.885,406.97 357.5,404C 352.789,399.86 351.289,394.694 353,388.5C 355.406,384.592 358.572,381.592 362.5,379.5 Z"/></g>
<g><path style="opacity:1" fill="#f6f6f8" d="M 177.5,384.5 C 181.87,385.041 183.87,387.541 183.5,392C 183.979,396.222 182.312,399.056 178.5,400.5C 176.971,400.471 175.804,399.804 175,398.5C 173.718,393.295 174.551,388.628 177.5,384.5 Z"/></g>
<g><path style="opacity:1" fill="#f6f6f8" d="M 304.5,384.5 C 308.87,385.041 310.87,387.541 310.5,392C 310.979,396.222 309.312,399.056 305.5,400.5C 303.971,400.471 302.804,399.804 302,398.5C 300.718,393.295 301.551,388.628 304.5,384.5 Z"/></g>
<g><path style="opacity:1" fill="#f4f4f6" d="M 362.5,385.5 C 367.175,384.339 369.841,386.006 370.5,390.5C 367.5,390.5 364.5,390.5 361.5,390.5C 361.366,388.708 361.699,387.042 362.5,385.5 Z"/></g>
<g><path style="opacity:1" fill="#8f91a2" d="M 256.5,392.5 C 258.265,391.539 260.265,391.205 262.5,391.5C 262.802,394.059 262.468,396.393 261.5,398.5C 261.5,396.5 261.5,394.5 261.5,392.5C 259.833,392.5 258.167,392.5 256.5,392.5 Z"/></g>
</svg>
